<?xml version="1.0" encoding="UTF-8" standalone="no"?>
<svg
   xmlns:dc="http://purl.org/dc/elements/1.1/"
   xmlns:cc="http://creativecommons.org/ns#"
   xmlns:rdf="http://www.w3.org/1999/02/22-rdf-syntax-ns#"
   xmlns:svg="http://www.w3.org/2000/svg"
   xmlns="http://www.w3.org/2000/svg"
   xmlns:sodipodi="http://sodipodi.sourceforge.net/DTD/sodipodi-0.dtd"
   xmlns:inkscape="http://www.inkscape.org/namespaces/inkscape"
   width="271.67981"
   height="199.24947"
   viewBox="0 0 76.67408 56.232629"
   id="svg2"
   version="1.1"
   sodipodi:docname="squatbot-logo.svg"
   inkscape:version="0.92.2 (5c3e80d, 2017-08-06)">
  <sodipodi:namedview
     pagecolor="#ffffff"
     bordercolor="#666666"
     borderopacity="1"
     objecttolerance="10"
     gridtolerance="10"
     guidetolerance="10"
     inkscape:pageopacity="0"
     inkscape:pageshadow="2"
     inkscape:window-width="640"
     inkscape:window-height="480"
     id="namedview744"
     showgrid="false"
     inkscape:zoom="3.2230693"
     inkscape:cx="135.8399"
     inkscape:cy="99.624733"
     inkscape:current-layer="flowRoot6074-6-8-2-5-1-2-8-0-6-1-6-0-5-2-6-7-8-7-45-3-1-7-8-0-4-8-3-7-1-2-2-7-0-9-7-1-1-7-8-6-6" />
  <defs
     id="defs4" />
  <metadata
     id="metadata7">
    <rdf:RDF>
      <cc:Work
         rdf:about="">
        <dc:format>image/svg+xml</dc:format>
        <dc:type
           rdf:resource="http://purl.org/dc/dcmitype/StillImage" />
        <dc:title></dc:title>
      </cc:Work>
    </rdf:RDF>
  </metadata>
  <g
     id="layer1"
     transform="translate(-58.831545,-13.052446)">
    <g
       id="g9844"
       transform="matrix(1.0083386,0,0,0.99999999,-54.763584,77.328067)">
      <circle
         style="color:#000000;display:inline;overflow:visible;visibility:visible;fill:#9bd6e5;fill-opacity:1;fill-rule:nonzero;stroke:none;stroke-width:5.92230177;marker:none;enable-background:accumulate"
         id="path6120-1-9-7-0-9-5-7-8-9-8-0-7"
         cx="-44.762791"
         cy="151.08493"
         r="0.71449876"
         transform="matrix(0,1,1,0,0,0)" />
      <circle
         style="color:#000000;display:inline;overflow:visible;visibility:visible;fill:#9bd6e5;fill-opacity:1;fill-rule:nonzero;stroke:none;stroke-width:5.92230177;marker:none;enable-background:accumulate"
         id="path6122-1-1-2-3-6-2-6-4-1-8-8-6"
         cx="-22.048904"
         cy="162.78577"
         r="1.1739097"
         transform="matrix(0,1,1,0,0,0)" />
      <path
         style="color:#000000;display:inline;overflow:visible;visibility:visible;opacity:1;vector-effect:none;fill:#ff9955;fill-opacity:1;fill-rule:evenodd;stroke:none;stroke-width:13.66742325;stroke-linecap:butt;stroke-linejoin:miter;stroke-miterlimit:4;stroke-dasharray:none;stroke-dashoffset:0;stroke-opacity:1;marker:none;enable-background:accumulate"
         id="path13706-4-1-5-4-8-8-6-5-6-0-7-7-9-1-0-1-8-8-1-5-1-1-4-8-7-6"
         d="m 20832.135,-20.362822 c -10.192,17.652015 -231.789,145.591372 -252.172,145.591372 -20.383,0 -241.98,-127.9393591 -252.172,-145.591375 -10.191,-17.652015 -10.191,-273.530725 0,-291.182735 10.192,-17.65202 231.789,-145.59137 252.172,-145.59137 20.383,0 241.98,127.93935 252.172,145.59137 10.191,17.65201 10.191,273.530722 0,291.182738 z"
         transform="matrix(0,-0.10821657,0.10821657,0,168.63469,2190.9337)" />
      <rect
         style="color:#000000;display:inline;overflow:visible;visibility:visible;opacity:1;vector-effect:none;fill:#ffffff;fill-opacity:1;fill-rule:evenodd;stroke:#1e2d3a;stroke-width:0;stroke-linecap:round;stroke-linejoin:round;stroke-miterlimit:4;stroke-dasharray:none;stroke-dashoffset:0;stroke-opacity:1;marker:none;enable-background:accumulate"
         id="rect16687-9-2-1-2-0-0-7-3-2-1-6-0-2-9-9-9-9-6-1-9-8-5-1-8-3"
         width="76.040009"
         height="15.861107"
         x="112.65574"
         y="-27.15329"
         ry="4.0430274" />
      <g
         aria-label="Squatbot"
         transform="matrix(0.20160388,0,0,0.20160388,-1482.5706,-251.99386)"
         style="font-style:normal;font-variant:normal;font-weight:bold;font-stretch:normal;line-height:0.01%;font-family:Orbitron;-inkscape-font-specification:Orbitron;text-align:center;letter-spacing:0px;word-spacing:0px;text-anchor:middle;fill:#0c133a;fill-opacity:1;stroke:#ffffff;stroke-opacity:1"
         id="flowRoot6074-6-8-2-5-1-2-8-0-6-1-6-0-5-2-6-7-8-7-45-3-1-7-8-0-4-8-3-7-1-2-2-7-0-9-7-1-1-7-8-6-6">
        <path
           d="m 7989.4153,1135.525 v 3.52 h -8.512 v -3.52 q 0,-0.448 -0.384,-0.448 h -28.288 q -0.448,0 -0.448,0.448 v 9.472 q 0,0.448 0.448,0.448 h 28.288 q 3.648,0 6.272,2.624 2.624,2.56 2.624,6.272 v 9.472 q 0,3.712 -2.624,6.336 -2.624,2.56 -6.272,2.56 h -28.288 q -3.712,0 -6.336,-2.56 -2.56,-2.624 -2.56,-6.336 v -3.52 h 8.448 v 3.52 q 0,0.448 0.448,0.448 h 28.288 q 0.384,0 0.384,-0.448 v -9.472 q 0,-0.448 -0.384,-0.448 h -28.288 q -3.712,0 -6.336,-2.56 -2.56,-2.624 -2.56,-6.336 v -9.472 q 0,-3.712 2.56,-6.272 2.624,-2.624 6.336,-2.624 h 28.288 q 3.648,0 6.272,2.624 2.624,2.56 2.624,6.272 z"
           style="font-style:normal;font-variant:normal;font-weight:bold;font-stretch:normal;font-size:64px;line-height:1.25;font-family:Orbitron;-inkscape-font-specification:'Orbitron Bold';fill:#0c133a;fill-opacity:1;stroke:#ffffff;stroke-opacity:1"
           id="path746" />
        <path
           d="m 7993.9763,1144.421 q 0,-3.648 2.56,-6.208 2.624,-2.624 6.272,-2.624 h 28.928 v 51.84 h -8.384 v -14.72 h -20.544 q -3.648,0 -6.272,-2.56 -2.56,-2.624 -2.56,-6.272 z m 8.448,0 v 19.456 q 0,0.448 0.384,0.448 h 20.096 q 0.448,0 0.448,-0.448 v -19.456 q 0,-0.448 -0.448,-0.448 h -20.096 q -0.384,0 -0.384,0.448 z"
           style="font-style:normal;font-variant:normal;font-weight:bold;font-stretch:normal;font-size:64px;line-height:1.25;font-family:Orbitron;-inkscape-font-specification:'Orbitron Bold';fill:#0c133a;fill-opacity:1;stroke:#ffffff;stroke-opacity:1"
           id="path748" />
        <path
           d="m 8066.2753,1135.589 h 8.384 v 28.288 q 0,3.648 -2.624,6.272 -2.56,2.56 -6.208,2.56 h -20.032 q -3.712,0 -6.272,-2.56 -2.56,-2.624 -2.56,-6.272 v -28.288 h 8.384 v 28.288 q 0,0.448 0.448,0.448 h 20.032 q 0.448,0 0.448,-0.448 z"
           style="font-style:normal;font-variant:normal;font-weight:bold;font-stretch:normal;font-size:64px;line-height:1.25;font-family:Orbitron;-inkscape-font-specification:'Orbitron Bold';fill:#0c133a;fill-opacity:1;stroke:#ffffff;stroke-opacity:1"
           id="path750" />
        <path
           d="m 8110.2633,1135.589 q 3.648,0 6.208,2.624 2.624,2.56 2.624,6.208 v 28.288 h -28.864 q -3.648,0 -6.272,-2.56 -2.56,-2.624 -2.56,-6.272 v -13.952 h 29.312 v -5.504 q 0,-0.448 -0.448,-0.448 h -28.864 v -8.384 z m 0.448,28.736 v -5.952 h -20.928 v 5.504 q 0,0.448 0.448,0.448 z"
           style="font-style:normal;font-variant:normal;font-weight:bold;font-stretch:normal;font-size:64px;line-height:1.25;font-family:Orbitron;-inkscape-font-specification:'Orbitron Bold';fill:#0c133a;fill-opacity:1;stroke:#ffffff;stroke-opacity:1"
           id="path752" />
        <path
           d="m 8148.6863,1143.973 h -14.464 v 19.904 q 0,0.448 0.448,0.448 h 14.016 v 8.384 h -14.016 q -3.712,0 -6.272,-2.56 -2.56,-2.624 -2.56,-6.272 v -40.448 h 8.384 v 12.16 h 14.464 z"
           style="font-style:normal;font-variant:normal;font-weight:bold;font-stretch:normal;font-size:64px;line-height:1.25;font-family:Orbitron;-inkscape-font-specification:'Orbitron Bold';fill:#0c133a;fill-opacity:1;stroke:#ffffff;stroke-opacity:1"
           id="path754" />
        <path
           d="m 8182.7663,1135.589 q 3.648,0 6.208,2.624 2.624,2.56 2.624,6.208 v 19.456 q 0,3.648 -2.624,6.272 -2.56,2.56 -6.208,2.56 h -28.864 v -49.28 h 8.384 v 12.16 z m 0.448,28.288 v -19.456 q 0,-0.448 -0.448,-0.448 h -20.032 q -0.448,0 -0.448,0.448 v 19.456 q 0,0.448 0.448,0.448 h 20.032 q 0.448,0 0.448,-0.448 z"
           style="font-style:normal;font-variant:normal;font-weight:bold;font-stretch:normal;font-size:64px;line-height:1.25;font-family:Orbitron;-inkscape-font-specification:'Orbitron Bold';fill:#0c133a;fill-opacity:1;stroke:#ffffff;stroke-opacity:1"
           id="path756" />
        <path
           d="m 8205.4173,1135.589 h 20.032 q 3.648,0 6.208,2.624 2.624,2.56 2.624,6.208 v 19.456 q 0,3.648 -2.624,6.272 -2.56,2.56 -6.208,2.56 h -20.032 q -3.648,0 -6.272,-2.56 -2.56,-2.624 -2.56,-6.272 v -19.456 q 0,-3.648 2.56,-6.208 2.624,-2.624 6.272,-2.624 z m 20.032,8.384 h -20.032 q -0.448,0 -0.448,0.448 v 19.456 q 0,0.448 0.448,0.448 h 20.032 q 0.448,0 0.448,-0.448 v -19.456 q 0,-0.448 -0.448,-0.448 z"
           style="font-style:normal;font-variant:normal;font-weight:bold;font-stretch:normal;font-size:64px;line-height:1.25;font-family:Orbitron;-inkscape-font-specification:'Orbitron Bold';fill:#0c133a;fill-opacity:1;stroke:#ffffff;stroke-opacity:1"
           id="path758" />
        <path
           d="m 8262.1863,1143.973 h -14.464 v 19.904 q 0,0.448 0.448,0.448 h 14.016 v 8.384 h -14.016 q -3.712,0 -6.272,-2.56 -2.56,-2.624 -2.56,-6.272 v -40.448 h 8.384 v 12.16 h 14.464 z"
           style="font-style:normal;font-variant:normal;font-weight:bold;font-stretch:normal;font-size:64px;line-height:1.25;font-family:Orbitron;-inkscape-font-specification:'Orbitron Bold';fill:#0c133a;fill-opacity:1;stroke:#ffffff;stroke-opacity:1"
           id="path760" />
      </g>
      <path
         id="path7711-0-4-3-3-2-4-2-9-4-03-7-9-5-4-5-5-0-9-4-1-1-7-5-7-4-6-3-1-4-6-0-5"
         style="fill:#ffffff;fill-opacity:1;fill-rule:nonzero;stroke:none;stroke-width:0.45730451"
         d="m 138.45728,-47.135307 v 1.036715 h -6.21241 v -2.073429 h 6.21241 z"
         mask="none" />
      <path
         id="path7917-6-0-7-7-6-3-8-9-8-2-2-7-1-0-8-0-1-1-4-2-7-5-0-5-1-4-0-2-8-6-5-1"
         d="m 133.28285,-52.445593 c -1.22523,0 -2.21935,0.978865 -2.21935,2.337992 0,0.644821 0.25434,1.359808 0.50913,1.912889 0.27514,0.598034 0.27514,1.28969 0,1.888198 -0.25479,0.552606 -0.50913,1.268067 -0.50913,1.912888 0,1.358671 0.99412,2.337995 2.21935,2.337995 1.22618,0 2.21936,-1.0465 2.21936,-2.337995 v -1.917839 -1.878297 -1.917839 c 0,-1.291951 -0.99318,-2.337992 -2.21936,-2.337992 z m -0.0642,1.660809 c 0.44192,0 0.80075,0.383093 0.80075,0.855127 0,0.472033 -0.35883,0.855127 -0.80075,0.855127 -0.44192,0 -0.80075,-0.383094 -0.80075,-0.855127 0,-0.472034 0.35883,-0.855127 0.80075,-0.855127 z m 0,5.363039 c 0.44146,0 0.80075,0.378601 0.80075,0.850175 0,0.472034 -0.35929,0.855127 -0.80075,0.855127 -0.44192,0 -0.80075,-0.383093 -0.80075,-0.855127 0,-0.471574 0.35883,-0.850175 0.80075,-0.850175 z"
         style="fill:#ffffff;fill-opacity:1;fill-rule:nonzero;stroke:none;stroke-width:0.45730451"
         mask="none" />
      <path
         id="path7967-1-9-8-1-53-1-4-0-8-9-9-8-5-5-2-6-3-1-8-87-1-2-0-2-6-7-9-4-6-5-4-3"
         style="fill:#ffffff;fill-opacity:1;fill-rule:nonzero;stroke:none;stroke-width:0.45730451"
         d="m 155.31144,-30.130307 -12.70092,0.0082 c -1.32714,9.15e-4 -2.41372,-1.08388 -2.41447,-2.410562 l -9e-5,-4.57e-4 c -8.2e-4,-1.327142 1.08443,-2.41335 2.41111,-2.414104 l 12.70138,-0.0082 c 1.32705,-0.0016 2.41371,1.083882 2.4141,2.411101 0.002,1.327061 -1.08406,2.412807 -2.41111,2.414101"
         mask="none" />
      <path
         id="path7979-6-4-8-0-2-3-6-7-4-0-0-6-0-9-6-4-5-2-4-14-6-2-2-7-0-8-0-9-3-3-4-5"
         style="fill:#ffffff;fill-opacity:1;fill-rule:nonzero;stroke:none;stroke-width:0.45730451"
         d="m 159.12565,-45.901205 c 0,2.722878 2.20731,4.930185 4.93065,4.930185 2.72242,0 4.92973,-2.207307 4.92973,-4.930185 0,-2.722882 -2.20731,-4.930649 -4.92973,-4.930649 -2.72334,0 -4.93065,2.207767 -4.93065,4.930649"
         mask="none" />
      <path
         id="path7983-4-8-2-7-4-6-2-4-1-2-7-6-2-7-9-9-5-5-0-8-6-7-9-1-6-6-6-3-3-3-4-9"
         style="fill:#ffffff;fill-opacity:1;fill-rule:nonzero;stroke:none;stroke-width:0.45730451"
         d="m 140.42782,-60.718999 h 20.54762 c 1.9729,0 3.57245,1.376727 3.57245,3.074474 v 17.683444 c 0,1.697745 -1.59955,3.07448 -3.57245,3.07448 h -20.54762 c -1.97291,0 -3.57245,-1.376735 -3.57245,-3.07448 v -17.683444 c 0,-1.697747 1.59954,-3.074474 3.57245,-3.074474"
         mask="none" />
      <path
         id="path7995-3-8-9-3-4-3-7-4-0-5-2-2-9-0-0-8-5-5-3-5-9-8-6-5-6-5-6-3-4-5-9-2"
         style="fill:#ffffff;fill-opacity:1;fill-rule:nonzero;stroke:none;stroke-width:0.45730451"
         d="m 159.12927,-48.3058 h -1.25397 c -1.40406,0 -2.55288,-1.148817 -2.55288,-2.552875 0,-1.404059 1.14882,-2.552413 2.55288,-2.552413 h 1.25397 c 1.40405,0 2.55287,1.148354 2.55287,2.552413 0,1.404058 -1.14882,2.552875 -2.55287,2.552875"
         mask="none" />
      <path
         id="path7999-1-2-1-4-4-0-1-0-1-9-0-7-2-9-0-5-3-1-0-7-1-4-6-5-1-2-2-9-9-4-0-6"
         style="fill:#ffffff;fill-opacity:1;fill-rule:nonzero;stroke:none;stroke-width:0.45730451"
         d="m 161.79693,-50.858583 c 0,-1.378117 -0.87412,-2.552874 -2.45745,-2.552874 -1.58333,0 -1.43324,5.105749 0,5.105749 1.43371,0 2.45745,-1.126118 2.45745,-2.552875"
         mask="none" />
      <path
         id="path8011-7-4-3-9-2-1-0-0-7-7-3-9-9-5-9-1-8-7-8-2-6-6-3-4-3-6-8-0-0-3-3-1"
         style="fill:#ff9955;fill-opacity:1;fill-rule:nonzero;stroke:none;stroke-width:0.45730451"
         d="m 160.46648,-55.851675 c -1.03625,-0.04678 -2.10725,0.01389 -3.1296,0.222815 -0.51002,0.10747 -1.01355,0.243661 -1.4879,0.440071 -0.23718,0.09821 -0.46509,0.211697 -0.68651,0.335844 l -0.32056,0.202432 c -0.10238,0.07273 -0.1802,0.16908 -0.36874,0.152867 l -0.0616,-0.0056 c -0.24783,-0.02131 -0.43127,-0.239491 -0.40996,-0.487785 4.6e-4,-0.0047 0.001,-0.01158 0.002,-0.01621 0.0246,-0.195021 0.15888,-0.277476 0.26821,-0.38263 l 0.359,-0.278402 c 0.24737,-0.172323 0.50261,-0.331212 0.76758,-0.471109 0.52901,-0.277475 1.08211,-0.495659 1.64772,-0.656863 1.13306,-0.32102 2.29115,-0.472498 3.47146,-0.454431 0.3868,0.0065 0.69531,0.324262 0.68929,0.711062 -0.006,0.386335 -0.32426,0.694849 -0.7106,0.688826 l -0.0176,-4.57e-4 -0.012,-4.57e-4 z"
         mask="none" />
      <path
         id="path8015-6-5-5-6-7-9-0-5-5-2-1-5-2-2-4-3-6-0-2-9-9-8-7-6-2-3-4-3-3-6-7-1"
         style="fill:#ff9955;fill-opacity:1;fill-rule:nonzero;stroke:none;stroke-width:0.45730451"
         d="m 156.47414,-38.615034 -9.2899,6.230568 -2.07813,-3.095671 9.2899,-6.230579 z"
         mask="none" />
      <path
         id="path8027-1-5-9-5-9-0-8-9-9-68-5-5-0-9-2-0-1-0-9-88-3-1-4-8-4-7-0-0-9-3-2-6"
         style="fill:#ffffff;fill-opacity:1;fill-rule:nonzero;stroke:none;stroke-width:0.45730451"
         d="m 148.4207,-32.529998 c -0.81459,1.243132 -2.4823,1.590537 -3.72543,0.77594 -1.24267,-0.814656 -1.59014,-2.482827 -0.77548,-3.725497 0.81413,-1.243064 2.4823,-1.590535 3.72503,-0.775414 1.24307,0.81413 1.59008,2.482359 0.77588,3.724971"
         mask="none" />
      <path
         id="path8031-8-1-8-1-2-4-2-7-4-2-2-5-6-6-4-8-9-3-3-66-7-3-4-3-0-6-9-4-6-0-3-3"
         style="fill:#ffffff;fill-opacity:1;stroke:#ff9955;stroke-width:0.92646539;stroke-linecap:round;stroke-linejoin:round;stroke-miterlimit:4;stroke-dasharray:none;stroke-opacity:1"
         d="m 148.4207,-32.529998 c -0.81459,1.243132 -2.4823,1.590537 -3.72543,0.77594 -1.24267,-0.814656 -1.59014,-2.482827 -0.77548,-3.725497 0.81413,-1.243064 2.4823,-1.590535 3.72503,-0.775414 1.24307,0.81413 1.59008,2.482359 0.77588,3.724971 z"
         mask="none" />
      <path
         id="path8035-0-7-4-0-3-2-4-5-7-2-3-8-5-95-3-3-2-6-6-1-1-6-3-6-0-4-3-7-2-4-0-2"
         style="fill:#ff9955;fill-opacity:1;fill-rule:nonzero;stroke:none;stroke-width:0.45730451"
         d="m 155.6056,-40.172161 -11.1846,0.151613 -0.0526,-3.729048 11.18512,-0.151204 0.0521,3.728639 z"
         mask="none" />
      <path
         id="path8047-7-1-0-9-7-9-6-8-6-6-1-9-6-3-0-1-7-5-5-3-4-8-2-4-1-5-5-3-9-1-7-7"
         style="fill:#ffffff;fill-opacity:1;fill-rule:nonzero;stroke:none;stroke-width:0.45730451"
         d="m 154.75543,-44.101682 c 1.35876,-0.602602 2.94775,0.01 3.5503,1.368297 0.60255,1.358294 -0.01,2.948206 -1.36824,3.550756 -1.35875,0.6026 -2.94775,-0.01 -3.55035,-1.368756 -0.60301,-1.358237 0.01,-2.947695 1.36829,-3.550297"
         mask="none" />
      <path
         id="path8051-5-1-7-9-3-3-7-1-4-6-4-7-4-3-7-9-2-8-6-8-8-4-2-9-1-2-4-7-2-7-7-0"
         style="fill:#ffffff;fill-opacity:1;stroke:#ff9955;stroke-width:0.92646539;stroke-linecap:round;stroke-linejoin:round;stroke-miterlimit:4;stroke-dasharray:none;stroke-opacity:1"
         d="m 154.75543,-44.101682 c 1.35876,-0.602602 2.94775,0.01 3.5503,1.368297 0.60255,1.358294 -0.01,2.948206 -1.36824,3.550756 -1.35875,0.6026 -2.94775,-0.01 -3.55035,-1.368756 -0.60301,-1.358237 0.01,-2.947695 1.36829,-3.550297 z"
         mask="none" />
      <path
         id="path8055-5-5-6-6-1-1-1-3-4-9-3-0-4-7-8-4-5-2-4-0-8-35-1-0-3-4-5-5-2-4-8-4"
         style="fill:#ffffff;fill-opacity:1;fill-rule:nonzero;stroke:none;stroke-width:0.45730451"
         d="m 143.81046,-44.373576 c 1.35829,-0.602548 2.94775,0.01 3.55035,1.368759 0.60255,1.358295 -0.01,2.947748 -1.36876,3.550348 -1.35829,0.60255 -2.94775,-0.01 -3.5503,-1.368289 -0.6026,-1.358762 0.01,-2.948216 1.36871,-3.550818"
         mask="none" />
      <path
         id="path8059-4-2-3-83-5-4-8-0-6-1-4-5-7-1-6-5-8-4-0-71-2-1-6-6-5-3-7-4-7-8-8-7"
         style="fill:#ffffff;fill-opacity:1;stroke:#ff9955;stroke-width:0.92646539;stroke-linecap:round;stroke-linejoin:round;stroke-miterlimit:4;stroke-dasharray:none;stroke-opacity:1"
         d="m 143.81046,-44.373576 c 1.35829,-0.602548 2.94775,0.01 3.55035,1.368759 0.60255,1.358295 -0.01,2.947748 -1.36876,3.550348 -1.35829,0.60255 -2.94775,-0.01 -3.5503,-1.368289 -0.6026,-1.358762 0.01,-2.948216 1.36871,-3.550818 z"
         mask="none" />
    </g>
  </g>
</svg>
